<svg xmlns="http://www.w3.org/2000/svg" xmlns:xlink="http://www.w3.org/1999/xlink" viewBox="0,0,256,256" width="50px" height="50px"><g fill="none" fill-rule="nonzero" stroke="none" stroke-width="1" stroke-linecap="butt" stroke-linejoin="miter" stroke-miterlimit="10" stroke-dasharray="" stroke-dashoffset="0" font-family="none" font-weight="none" font-size="none" text-anchor="none" style="mix-blend-mode: normal"><g transform="scale(2.56,2.56)"><path d="M13,27c-1.10457,0 -2,0.89543 -2,2c0,1.10457 0.89543,2 2,2c1.10457,0 2,-0.89543 2,-2c0,-1.10457 -0.89543,-2 -2,-2z" fill-opacity="0.8" fill="#0e1525"></path><path d="M77,12c-0.55228,0 -1,0.44772 -1,1c0,0.55228 0.44772,1 1,1c0.55228,0 1,-0.44772 1,-1c0,-0.55228 -0.44772,-1 -1,-1z" fill="#f1bc19"></path><path d="M50,13c-20.43454,0 -37,16.56546 -37,37c0,20.43454 16.56546,37 37,37c20.43454,0 37,-16.56546 37,-37c0,-20.43454 -16.56546,-37 -37,-37z" fill="#fce0a2"></path><path d="M83,11c-2.20914,0 -4,1.79086 -4,4c0,2.20914 1.79086,4 4,4c2.20914,0 4,-1.79086 4,-4c0,-2.20914 -1.79086,-4 -4,-4z" fill="#f1bc19"></path><path d="M87,22c-1.10457,0 -2,0.89543 -2,2c0,1.10457 0.89543,2 2,2c1.10457,0 2,-0.89543 2,-2c0,-1.10457 -0.89543,-2 -2,-2z" fill-opacity="0.8" fill="#0e1525"></path><path d="M81,74c-1.10457,0 -2,0.89543 -2,2c0,1.10457 0.89543,2 2,2c1.10457,0 2,-0.89543 2,-2c0,-1.10457 -0.89543,-2 -2,-2zM15,59c-2.20914,0 -4,1.79086 -4,4c0,2.20914 1.79086,4 4,4c2.20914,0 4,-1.79086 4,-4c0,-2.20914 -1.79086,-4 -4,-4z" fill="#fbcd59"></path><path d="M25,85c-1.10457,0 -2,0.89543 -2,2c0,1.10457 0.89543,2 2,2c1.10457,0 2,-0.89543 2,-2c0,-1.10457 -0.89543,-2 -2,-2z" fill-opacity="0.8" fill="#0e1525"></path><path d="M18.5,51c-1.38071,0 -2.5,1.11929 -2.5,2.5c0,1.38071 1.11929,2.5 2.5,2.5c1.38071,0 2.5,-1.11929 2.5,-2.5c0,-1.38071 -1.11929,-2.5 -2.5,-2.5z" fill="#ffffff"></path><path d="M21,66c-0.55228,0 -1,0.44772 -1,1c0,0.55228 0.44772,1 1,1c0.55228,0 1,-0.44772 1,-1c0,-0.55228 -0.44772,-1 -1,-1z" fill="#f1bc19"></path><path d="M80,33c-0.55228,0 -1,0.44772 -1,1c0,0.55228 0.44772,1 1,1c0.55228,0 1,-0.44772 1,-1c0,-0.55228 -0.44772,-1 -1,-1z" fill="#ffffff"></path><path d="M35,72.3c-4.025,0 -7.3,-3.274 -7.3,-7.3v-30c0,-4.025 3.274,-7.3 7.3,-7.3h30c4.025,0 7.3,3.274 7.3,7.3v30c0,4.025 -3.274,7.3 -7.3,7.3z" fill="#f98869"></path><path d="M65,28.4c3.639,0 6.6,2.961 6.6,6.6v30c0,3.639 -2.961,6.6 -6.6,6.6h-30c-3.639,0 -6.6,-2.961 -6.6,-6.6v-30c0,-3.639 2.961,-6.6 6.6,-6.6h30M65,27h-30c-4.4,0 -8,3.6 -8,8v30c0,4.4 3.6,8 8,8h30c4.4,0 8,-3.6 8,-8v-30c0,-4.4 -3.6,-8 -8,-8z" fill="#472b29"></path><path d="M68.5,47.875v1.75v14.375c0,2.475 -2.025,4.5 -4.5,4.5h-28c-2.475,0 -4.5,-2.025 -4.5,-4.5v-28c0,-2.475 2.025,-4.5 4.5,-4.5h25.375h2.625c2.475,0 4.5,2.025 4.5,4.5v3.375v2v1v1.125v2.875v1.5" fill="#fdfcee"></path><path d="M68.5,47.375c-0.276,0 -0.5,-0.224 -0.5,-0.5v-3.875c0,-0.276 0.224,-0.5 0.5,-0.5c0.276,0 0.5,0.224 0.5,0.5v3.875c0,0.276 -0.224,0.5 -0.5,0.5zM68.5,40.5c-0.276,0 -0.5,-0.224 -0.5,-0.5v-2c0,-0.276 0.224,-0.5 0.5,-0.5c0.276,0 0.5,0.224 0.5,0.5v2c0,0.276 -0.224,0.5 -0.5,0.5z" fill="#472b29"></path><path d="M64,69h-28c-2.757,0 -5,-2.243 -5,-5v-28c0,-2.757 2.243,-5 5,-5h25.375c0.276,0 0.5,0.224 0.5,0.5c0,0.276 -0.224,0.5 -0.5,0.5h-25.375c-2.206,0 -4,1.794 -4,4v28c0,2.206 1.794,4 4,4h28c2.206,0 4,-1.794 4,-4v-14.375c0,-0.276 0.224,-0.5 0.5,-0.5c0.276,0 0.5,0.224 0.5,0.5v14.375c0,2.757 -2.243,5 -5,5z" fill="#472b29"></path><path d="M50,37.5c-6.90356,0 -12.5,5.59644 -12.5,12.5c0,6.90356 5.59644,12.5 12.5,12.5c6.90356,0 12.5,-5.59644 12.5,-12.5c0,-6.90356 -5.59644,-12.5 -12.5,-12.5z" fill="#f76746"></path><path d="M50,38c6.627,0 12,5.373 12,12c0,6.627 -5.373,12 -12,12c-6.627,0 -12,-5.373 -12,-12c0,-6.627 5.373,-12 12,-12M50,37c-7.168,0 -13,5.832 -13,13c0,7.168 5.832,13 13,13c7.168,0 13,-5.832 13,-13c0,-7.168 -5.832,-13 -13,-13z" fill="#472b29"></path><g><path d="M50.031,39.934c-5.5223,0 -9.999,4.50312 -9.999,10.058c0,5.55488 4.4767,10.058 9.999,10.058c5.5223,0 9.999,-4.50312 9.999,-10.058c0,-5.55488 -4.4767,-10.058 -9.999,-10.058z" fill="#fdfcee"></path><path d="M50.031,60.3c-5.651,0 -10.249,-4.624 -10.249,-10.308c0,-5.684 4.598,-10.308 10.249,-10.308c5.651,0 10.249,4.624 10.249,10.308c0,5.684 -4.598,10.308 -10.249,10.308zM50.031,40.185c-5.375,0 -9.749,4.399 -9.749,9.808c0,5.409 4.373,9.808 9.749,9.808c5.376,0 9.749,-4.399 9.749,-9.808c0,-5.409 -4.374,-9.808 -9.749,-9.808z" fill="#472b29"></path></g><g fill="#cbc9bc"><path d="M51.271,48.034l-6.177,6.214c-0.154,0.155 -0.341,0.409 -0.187,0.565c0.154,0.155 0.407,-0.033 0.562,-0.188l6.177,-6.214c0.264,0.07 0.744,0.034 0.95,-0.175l0.562,-0.565c0.309,-0.311 0.309,-0.819 0,-1.129c-0.309,-0.311 -0.815,-0.311 -1.123,0l-0.562,0.565c-0.207,0.208 -0.272,0.661 -0.202,0.927z"></path></g><g fill="#472b29"><path d="M52.595,46.309c0.203,0 0.407,0.077 0.562,0.233c0.309,0.311 0.309,0.819 0,1.129l-0.562,0.565c-0.144,0.145 -0.422,0.206 -0.666,0.206c-0.105,0 -0.204,-0.011 -0.283,-0.033l-6.177,6.214c-0.114,0.115 -0.28,0.247 -0.423,0.247c-0.051,0 -0.099,-0.017 -0.139,-0.058c-0.154,-0.155 0.033,-0.409 0.187,-0.565l6.177,-6.214c-0.069,-0.266 -0.005,-0.72 0.201,-0.927l0.562,-0.565c0.154,-0.154 0.358,-0.232 0.561,-0.232M52.595,45.801c-0.349,0 -0.676,0.136 -0.921,0.383l-0.562,0.565c-0.269,0.271 -0.387,0.719 -0.375,1.102l-6.003,6.04c-0.695,0.699 -0.278,1.189 -0.187,1.281c0.133,0.134 0.311,0.208 0.5,0.208c0.258,0 0.521,-0.133 0.782,-0.396l5.998,-6.034c0.034,0.002 0.067,0.003 0.102,0.003c0.202,0 0.707,-0.035 1.027,-0.357l0.562,-0.565c0.506,-0.509 0.506,-1.337 0,-1.846c-0.247,-0.247 -0.574,-0.384 -0.923,-0.384z"></path></g><g fill="#472b29"><path d="M49.908,41.091c-0.14,0 -0.254,-0.114 -0.254,-0.254v-0.887c0,-0.14 0.114,-0.254 0.254,-0.254c0.14,0 0.254,0.114 0.254,0.254v0.887c0,0.14 -0.114,0.254 -0.254,0.254zM49.908,60.304c-0.14,0 -0.254,-0.114 -0.254,-0.254v-1.182c0,-0.14 0.114,-0.254 0.254,-0.254c0.14,0 0.254,0.114 0.254,0.254v1.182c0,0.14 -0.114,0.254 -0.254,0.254z"></path></g><g fill="#472b29"><path d="M59.928,49.959h-1.299c-0.14,0 -0.254,-0.114 -0.254,-0.254c0,-0.14 0.114,-0.254 0.254,-0.254h1.299c0.14,0 0.254,0.114 0.254,0.254c0,0.14 -0.114,0.254 -0.254,0.254zM41.297,49.959h-1.226c-0.14,0 -0.254,-0.114 -0.254,-0.254c0,-0.14 0.114,-0.254 0.254,-0.254h1.226c0.14,0 0.254,0.114 0.254,0.254c0,0.14 -0.115,0.254 -0.254,0.254z"></path></g><g><path d="M56.907,42.954l-0.827,0.833" fill="none"></path><path d="M56.079,44.041c-0.064,0 -0.13,-0.024 -0.18,-0.074c-0.1,-0.099 -0.1,-0.26 -0.001,-0.36l0.828,-0.833c0.102,-0.1 0.261,-0.1 0.36,-0.001c0.099,0.099 0.1,0.26 0.001,0.36l-0.828,0.833c-0.05,0.051 -0.114,0.075 -0.18,0.075z" fill="#472b29"></path><g><path d="M43.761,56.18l-0.828,0.833" fill="none"></path><path d="M42.933,57.267c-0.064,0 -0.13,-0.024 -0.18,-0.074c-0.1,-0.099 -0.1,-0.26 -0.001,-0.36l0.828,-0.833c0.101,-0.1 0.26,-0.101 0.36,-0.001c0.1,0.099 0.1,0.26 0.001,0.36l-0.828,0.833c-0.05,0.051 -0.115,0.075 -0.18,0.075z" fill="#472b29"></path></g></g><g><path d="M57.081,57.106l-0.828,-0.833" fill="none"></path><path d="M57.081,57.359c-0.065,0 -0.131,-0.024 -0.181,-0.075l-0.827,-0.833c-0.099,-0.1 -0.099,-0.26 0.002,-0.36c0.1,-0.099 0.26,-0.099 0.36,0.001l0.827,0.833c0.099,0.1 0.099,0.26 -0.002,0.36c-0.05,0.05 -0.115,0.074 -0.179,0.074z" fill="#472b29"></path><g><path d="M43.761,43.654l-0.828,-0.832" fill="none"></path><path d="M43.761,43.909c-0.065,0 -0.13,-0.024 -0.181,-0.075l-0.828,-0.833c-0.099,-0.1 -0.099,-0.26 0.001,-0.36c0.101,-0.099 0.26,-0.099 0.36,0.001l0.828,0.833c0.099,0.1 0.099,0.26 -0.001,0.36c-0.049,0.049 -0.114,0.074 -0.179,0.074z" fill="#472b29"></path></g></g><g fill="#472b29"><path d="M55.19,50.161h-4.138c-0.14,0 -0.254,-0.114 -0.254,-0.254c0,-0.14 0.114,-0.254 0.254,-0.254h4.138c0.14,0 0.254,0.114 0.254,0.254c0,0.14 -0.114,0.254 -0.254,0.254z"></path></g><g fill="#472b29"><path d="M49.869,49.274c-0.14,0 -0.254,-0.114 -0.254,-0.254v-6.798c0,-0.14 0.114,-0.254 0.254,-0.254c0.14,0 0.254,0.114 0.254,0.254v6.798c0,0.142 -0.113,0.254 -0.254,0.254z"></path></g><g fill="#f1bc19"><path d="M49.869,48.873c-0.57161,0 -1.035,0.46339 -1.035,1.035c0,0.57161 0.46339,1.035 1.035,1.035c0.57161,0 1.035,-0.46339 1.035,-1.035c0,-0.57161 -0.46339,-1.035 -1.035,-1.035z"></path></g><g fill="#472b29"><path d="M49.869,51.196c-0.71,0 -1.289,-0.578 -1.289,-1.289c0,-0.711 0.578,-1.289 1.289,-1.289c0.711,0 1.289,0.578 1.289,1.289c0,0.711 -0.579,1.289 -1.289,1.289zM49.869,49.127c-0.431,0 -0.781,0.35 -0.781,0.781c0,0.431 0.35,0.781 0.781,0.781c0.431,0 0.781,-0.35 0.781,-0.781c0,-0.431 -0.35,-0.781 -0.781,-0.781z"></path></g></g></g></svg>